<svg xmlns="http://www.w3.org/2000/svg" width="720" height="720"><circle cx="375.8" cy="580.8" r="1.17" fill="#111111" opacity="0.46"/><circle cx="551.6" cy="507.0" r="0.91" fill="#111111" opacity="0.36"/><circle cx="19.4" cy="276.6" r="0.98" fill="#111111" opacity="0.44"/><circle cx="361.2" cy="228.6" r="1.07" fill="#111111" opacity="0.82"/><circle cx="289.1" cy="718.9" r="0.40" fill="#111111" opacity="0.75"/><circle cx="630.2" cy="108.7" r="0.95" fill="#111111" opacity="0.61"/><circle cx="687.7" cy="151.2" r="0.81" fill="#111111" opacity="0.79"/><circle cx="459.9" cy="222.6" r="0.42" fill="#111111" opacity="0.82"/><circle cx="341.4" cy="717.4" r="0.47" fill="#111111" opacity="0.75"/><circle cx="585.6" cy="662.4" r="0.37" fill="#111111" opacity="0.50"/><circle cx="37.2" cy="541.5" r="0.65" fill="#111111" opacity="0.83"/><circle cx="269.9" cy="557.5" r="1.09" fill="#111111" opacity="0.43"/><circle cx="400.9" cy="689.3" r="0.80" fill="#111111" opacity="0.50"/><circle cx="192.4" cy="566.3" r="0.51" fill="#111111" opacity="0.63"/><circle cx="400.0" cy="398.5" r="0.46" fill="#111111" opacity="0.66"/><circle cx="659.9" cy="229.6" r="0.63" fill="#111111" opacity="0.80"/><circle cx="416.4" cy="196.3" r="0.36" fill="#111111" opacity="0.71"/><circle cx="250.6" cy="336.4" r="0.58" fill="#111111" opacity="0.65"/><circle cx="524.9" cy="223.0" r="0.41" fill="#111111" opacity="0.84"/><circle cx="655.2" cy="14.9" r="0.83" fill="#111111" opacity="0.68"/><circle cx="290.2" cy="526.8" r="1.17" fill="#111111" opacity="0.62"/><circle cx="281.9" cy="140.9" r="0.56" fill="#111111" opacity="0.38"/><circle cx="79.5" cy="152.9" r="1.07" fill="#111111" opacity="0.60"/><circle cx="579.6" cy="662.5" r="1.04" fill="#111111" opacity="0.33"/><circle cx="666.7" cy="66.8" r="1.01" fill="#111111" opacity="0.76"/><circle cx="473.4" cy="290.7" r="0.41" fill="#111111" opacity="0.35"/><circle cx="458.3" cy="174.0" r="0.80" fill="#111111" opacity="0.45"/><circle cx="117.7" cy="212.6" r="0.97" fill="#111111" opacity="0.57"/><circle cx="282.8" cy="350.3" r="0.82" fill="#111111" opacity="0.58"/><circle cx="320.4" cy="696.5" r="0.99" fill="#111111" opacity="0.43"/><circle cx="229.1" cy="135.9" r="0.66" fill="#111111" opacity="0.32"/><circle cx="536.0" cy="408.9" r="0.71" fill="#111111" opacity="0.79"/><circle cx="236.7" cy="416.6" r="1.14" fill="#111111" opacity="0.61"/><circle cx="441.3" cy="264.9" r="1.20" fill="#111111" opacity="0.72"/><circle cx="218.4" cy="256.0" r="0.85" fill="#111111" opacity="0.59"/><circle cx="376.8" cy="138.3" r="0.84" fill="#111111" opacity="0.69"/><circle cx="550.8" cy="323.6" r="0.73" fill="#111111" opacity="0.58"/><circle cx="386.1" cy="341.9" r="0.36" fill="#111111" opacity="0.44"/><circle cx="711.2" cy="595.0" r="0.75" fill="#111111" opacity="0.71"/><circle cx="152.1" cy="192.4" r="0.79" fill="#111111" opacity="0.68"/><circle cx="19.8" cy="339.6" r="1.12" fill="#111111" opacity="0.64"/><circle cx="715.0" cy="71.1" r="1.12" fill="#111111" opacity="0.76"/><circle cx="18.8" cy="386.3" r="1.00" fill="#111111" opacity="0.42"/><circle cx="467.5" cy="612.4" r="1.02" fill="#111111" opacity="0.54"/><circle cx="42.0" cy="388.2" r="0.51" fill="#111111" opacity="0.60"/><circle cx="194.0" cy="250.1" r="0.81" fill="#111111" opacity="0.75"/><circle cx="702.2" cy="292.0" r="0.36" fill="#111111" opacity="0.71"/><circle cx="244.3" cy="545.5" r="1.06" fill="#111111" opacity="0.32"/><circle cx="526.2" cy="205.1" r="0.62" fill="#111111" opacity="0.48"/><circle cx="387.6" cy="175.1" r="0.77" fill="#111111" opacity="0.46"/><circle cx="89.7" cy="180.0" r="0.93" fill="#111111" opacity="0.47"/><circle cx="144.2" cy="263.2" r="0.53" fill="#111111" opacity="0.84"/><circle cx="566.8" cy="109.2" r="0.60" fill="#111111" opacity="0.54"/><circle cx="380.2" cy="279.7" r="0.79" fill="#111111" opacity="0.72"/><circle cx="111.0" cy="402.6" r="0.49" fill="#111111" opacity="0.59"/><circle cx="228.3" cy="578.3" r="1.10" fill="#111111" opacity="0.83"/><circle cx="293.1" cy="444.0" r="0.49" fill="#111111" opacity="0.69"/><circle cx="560.2" cy="307.5" r="0.62" fill="#111111" opacity="0.72"/><circle cx="540.3" cy="575.5" r="0.60" fill="#111111" opacity="0.43"/><circle cx="180.5" cy="137.5" r="0.36" fill="#111111" opacity="0.37"/><circle cx="354.8" cy="310.0" r="1.11" fill="#111111" opacity="0.51"/><circle cx="122.6" cy="670.2" r="0.41" fill="#111111" opacity="0.49"/><circle cx="549.8" cy="231.4" r="1.17" fill="#111111" opacity="0.71"/><circle cx="222.0" cy="621.7" r="1.13" fill="#111111" opacity="0.58"/><circle cx="103.4" cy="74.9" r="1.05" fill="#111111" opacity="0.79"/><circle cx="470.8" cy="557.2" r="1.02" fill="#111111" opacity="0.43"/><circle cx="153.5" cy="624.7" r="1.06" fill="#111111" opacity="0.54"/><circle cx="194.6" cy="56.7" r="0.69" fill="#111111" opacity="0.80"/><circle cx="146.4" cy="227.4" r="0.38" fill="#111111" opacity="0.61"/><circle cx="43.3" cy="485.9" r="0.77" fill="#111111" opacity="0.53"/><circle cx="186.7" cy="217.9" r="1.11" fill="#111111" opacity="0.82"/><circle cx="541.4" cy="153.3" r="0.53" fill="#111111" opacity="0.50"/><circle cx="630.6" cy="678.8" r="0.55" fill="#111111" opacity="0.65"/><circle cx="273.4" cy="328.0" r="0.52" fill="#111111" opacity="0.70"/><circle cx="563.1" cy="676.4" r="0.76" fill="#111111" opacity="0.54"/><circle cx="465.3" cy="94.5" r="1.10" fill="#111111" opacity="0.72"/><circle cx="164.0" cy="289.3" r="0.76" fill="#111111" opacity="0.77"/><circle cx="498.8" cy="172.2" r="1.16" fill="#111111" opacity="0.81"/><circle cx="617.6" cy="354.7" r="0.75" fill="#111111" opacity="0.52"/><circle cx="704.0" cy="346.7" r="1.17" fill="#111111" opacity="0.40"/><circle cx="21.8" cy="340.0" r="0.52" fill="#111111" opacity="0.44"/><circle cx="25.9" cy="89.6" r="0.72" fill="#111111" opacity="0.35"/><circle cx="213.4" cy="441.0" r="0.57" fill="#111111" opacity="0.47"/><circle cx="272.5" cy="189.6" r="0.83" fill="#111111" opacity="0.73"/><circle cx="22.4" cy="386.3" r="0.80" fill="#111111" opacity="0.81"/><circle cx="506.9" cy="197.8" r="0.87" fill="#111111" opacity="0.80"/><circle cx="685.0" cy="552.6" r="0.44" fill="#111111" opacity="0.50"/><circle cx="344.7" cy="237.1" r="0.99" fill="#111111" opacity="0.57"/><circle cx="704.6" cy="5.6" r="1.04" fill="#111111" opacity="0.36"/><circle cx="373.4" cy="107.2" r="0.67" fill="#111111" opacity="0.64"/><circle cx="690.3" cy="29.4" r="0.68" fill="#111111" opacity="0.36"/><circle cx="535.0" cy="103.4" r="0.52" fill="#111111" opacity="0.74"/><circle cx="33.9" cy="637.4" r="0.58" fill="#111111" opacity="0.85"/><circle cx="76.5" cy="69.2" r="0.75" fill="#111111" opacity="0.47"/><circle cx="463.7" cy="218.0" r="0.63" fill="#111111" opacity="0.31"/></svg>