<svg xmlns="http://www.w3.org/2000/svg" width="780" height="780"><circle cx="297.2" cy="180.0" r="0.49" fill="#E1E1E1" opacity="0.80"/><circle cx="450.8" cy="538.3" r="0.82" fill="#E1E1E1" opacity="0.51"/><circle cx="570.7" cy="449.6" r="1.01" fill="#E1E1E1" opacity="0.66"/><circle cx="654.7" cy="342.7" r="0.48" fill="#E1E1E1" opacity="0.38"/><circle cx="564.1" cy="130.7" r="0.91" fill="#E1E1E1" opacity="0.64"/><circle cx="46.4" cy="611.8" r="0.38" fill="#E1E1E1" opacity="0.78"/><circle cx="656.0" cy="168.4" r="0.97" fill="#E1E1E1" opacity="0.70"/><circle cx="97.5" cy="522.6" r="0.46" fill="#E1E1E1" opacity="0.80"/><circle cx="537.3" cy="764.4" r="0.40" fill="#E1E1E1" opacity="0.47"/><circle cx="483.5" cy="474.4" r="0.50" fill="#E1E1E1" opacity="0.79"/><circle cx="660.3" cy="235.1" r="0.47" fill="#E1E1E1" opacity="0.67"/><circle cx="317.6" cy="517.4" r="0.77" fill="#E1E1E1" opacity="0.52"/><circle cx="16.9" cy="105.3" r="0.74" fill="#E1E1E1" opacity="0.70"/><circle cx="332.0" cy="580.7" r="0.81" fill="#E1E1E1" opacity="0.78"/><circle cx="511.0" cy="251.1" r="0.47" fill="#E1E1E1" opacity="0.34"/><circle cx="30.9" cy="672.7" r="1.09" fill="#E1E1E1" opacity="0.71"/><circle cx="85.3" cy="515.2" r="0.46" fill="#E1E1E1" opacity="0.79"/><circle cx="511.2" cy="584.7" r="0.87" fill="#E1E1E1" opacity="0.53"/><circle cx="661.8" cy="750.1" r="0.56" fill="#E1E1E1" opacity="0.54"/><circle cx="572.1" cy="530.4" r="0.70" fill="#E1E1E1" opacity="0.55"/><circle cx="754.8" cy="215.2" r="0.53" fill="#E1E1E1" opacity="0.68"/><circle cx="216.0" cy="700.0" r="0.63" fill="#E1E1E1" opacity="0.81"/><circle cx="296.3" cy="690.4" r="0.99" fill="#E1E1E1" opacity="0.70"/><circle cx="167.2" cy="128.1" r="0.38" fill="#E1E1E1" opacity="0.40"/><circle cx="519.9" cy="50.2" r="0.55" fill="#E1E1E1" opacity="0.61"/><circle cx="121.0" cy="256.7" r="0.54" fill="#E1E1E1" opacity="0.67"/><circle cx="92.4" cy="778.1" r="0.86" fill="#E1E1E1" opacity="0.69"/><circle cx="431.0" cy="388.3" r="1.18" fill="#E1E1E1" opacity="0.79"/><circle cx="641.1" cy="23.3" r="0.85" fill="#E1E1E1" opacity="0.82"/><circle cx="497.9" cy="400.1" r="0.90" fill="#E1E1E1" opacity="0.40"/><circle cx="567.6" cy="611.3" r="0.41" fill="#E1E1E1" opacity="0.58"/><circle cx="464.3" cy="274.6" r="0.93" fill="#E1E1E1" opacity="0.81"/><circle cx="706.8" cy="240.1" r="0.48" fill="#E1E1E1" opacity="0.77"/><circle cx="477.3" cy="647.0" r="1.09" fill="#E1E1E1" opacity="0.45"/><circle cx="458.2" cy="236.5" r="1.03" fill="#E1E1E1" opacity="0.68"/><circle cx="186.5" cy="390.1" r="0.86" fill="#E1E1E1" opacity="0.43"/><circle cx="142.3" cy="369.9" r="0.41" fill="#E1E1E1" opacity="0.57"/><circle cx="733.2" cy="644.3" r="0.40" fill="#E1E1E1" opacity="0.75"/><circle cx="558.8" cy="552.4" r="0.37" fill="#E1E1E1" opacity="0.72"/><circle cx="152.4" cy="626.4" r="0.62" fill="#E1E1E1" opacity="0.50"/><circle cx="134.4" cy="676.7" r="0.54" fill="#E1E1E1" opacity="0.78"/><circle cx="400.8" cy="115.8" r="0.91" fill="#E1E1E1" opacity="0.59"/><circle cx="21.1" cy="642.4" r="0.58" fill="#E1E1E1" opacity="0.31"/><circle cx="597.8" cy="567.1" r="0.68" fill="#E1E1E1" opacity="0.40"/><circle cx="411.0" cy="457.4" r="0.94" fill="#E1E1E1" opacity="0.57"/><circle cx="442.9" cy="562.2" r="0.51" fill="#E1E1E1" opacity="0.40"/><circle cx="377.9" cy="588.2" r="1.03" fill="#E1E1E1" opacity="0.77"/><circle cx="342.4" cy="556.7" r="0.44" fill="#E1E1E1" opacity="0.51"/><circle cx="52.1" cy="651.5" r="1.20" fill="#E1E1E1" opacity="0.67"/><circle cx="586.9" cy="290.3" r="1.03" fill="#E1E1E1" opacity="0.35"/><circle cx="289.1" cy="273.6" r="1.08" fill="#E1E1E1" opacity="0.40"/><circle cx="124.1" cy="69.7" r="1.07" fill="#E1E1E1" opacity="0.47"/><circle cx="704.4" cy="244.1" r="1.06" fill="#E1E1E1" opacity="0.41"/><circle cx="703.9" cy="759.5" r="1.10" fill="#E1E1E1" opacity="0.68"/><circle cx="699.2" cy="713.2" r="1.17" fill="#E1E1E1" opacity="0.45"/><circle cx="662.9" cy="608.1" r="0.64" fill="#E1E1E1" opacity="0.39"/><circle cx="701.7" cy="368.5" r="0.80" fill="#E1E1E1" opacity="0.79"/><circle cx="377.4" cy="196.9" r="0.93" fill="#E1E1E1" opacity="0.59"/><circle cx="212.5" cy="539.8" r="1.12" fill="#E1E1E1" opacity="0.44"/><circle cx="633.9" cy="587.9" r="0.79" fill="#E1E1E1" opacity="0.41"/><circle cx="518.6" cy="219.5" r="0.56" fill="#E1E1E1" opacity="0.77"/><circle cx="211.1" cy="72.1" r="1.07" fill="#E1E1E1" opacity="0.85"/><circle cx="238.2" cy="315.9" r="0.81" fill="#E1E1E1" opacity="0.71"/><circle cx="9.5" cy="505.4" r="0.55" fill="#E1E1E1" opacity="0.81"/><circle cx="323.4" cy="736.5" r="0.73" fill="#E1E1E1" opacity="0.66"/><circle cx="29.5" cy="158.1" r="0.60" fill="#E1E1E1" opacity="0.50"/><circle cx="135.0" cy="328.4" r="0.42" fill="#E1E1E1" opacity="0.61"/><circle cx="751.1" cy="668.6" r="0.88" fill="#E1E1E1" opacity="0.84"/><circle cx="568.2" cy="494.7" r="0.74" fill="#E1E1E1" opacity="0.35"/><circle cx="696.7" cy="699.0" r="1.03" fill="#E1E1E1" opacity="0.68"/><circle cx="633.9" cy="747.7" r="1.18" fill="#E1E1E1" opacity="0.72"/><circle cx="12.7" cy="738.9" r="0.83" fill="#E1E1E1" opacity="0.55"/><circle cx="336.2" cy="210.9" r="0.38" fill="#E1E1E1" opacity="0.64"/><circle cx="481.7" cy="67.4" r="1.13" fill="#E1E1E1" opacity="0.80"/><circle cx="674.5" cy="419.2" r="0.68" fill="#E1E1E1" opacity="0.56"/><circle cx="289.1" cy="745.3" r="1.13" fill="#E1E1E1" opacity="0.79"/><circle cx="405.4" cy="398.6" r="0.93" fill="#E1E1E1" opacity="0.46"/><circle cx="143.6" cy="768.2" r="0.58" fill="#E1E1E1" opacity="0.45"/><circle cx="384.0" cy="68.9" r="0.80" fill="#E1E1E1" opacity="0.39"/><circle cx="646.7" cy="63.9" r="1.03" fill="#E1E1E1" opacity="0.45"/><circle cx="614.7" cy="624.6" r="1.16" fill="#E1E1E1" opacity="0.40"/><circle cx="768.1" cy="115.4" r="0.65" fill="#E1E1E1" opacity="0.30"/><circle cx="385.3" cy="63.9" r="0.82" fill="#E1E1E1" opacity="0.81"/><circle cx="609.7" cy="505.2" r="0.43" fill="#E1E1E1" opacity="0.84"/><circle cx="284.5" cy="740.6" r="0.47" fill="#E1E1E1" opacity="0.46"/></svg>